<svg xmlns="http://www.w3.org/2000/svg" width="299.104" height="441.255" viewBox="0 0 299.104 441.255">
  <g id="denglushuru" transform="translate(-38.283 -173.745)">
    <g id="组_89" data-name="组 89">
      <g id="路径_172" data-name="路径 172" transform="translate(38 205)" fill="#ded0bf">
        <path d="M 286.4754333496094 409.5000305175781 L 13.65877246856689 409.5000305175781 L 13.65877246856689 397.0275268554688 L 13.65877246856689 396.5275268554688 L 13.15877246856689 396.5275268554688 L 0.7827226519584656 396.5275268554688 L 0.7827226519584656 11.31687927246094 L 13.15877246856689 11.31687927246094 L 13.65877246856689 11.31687927246094 L 13.65877246856689 10.81687927246094 L 13.65877246856689 0.5004460215568542 L 286.8295593261719 0.5098117589950562 L 286.8295593261719 10.81687927246094 L 286.8295593261719 11.31687927246094 L 287.3295593261719 11.31687927246094 L 298.8857421875 11.31687927246094 L 298.5118408203125 397.7383422851563 L 286.9754333496094 397.7383422851563 L 286.4754333496094 397.7383422851563 L 286.4754333496094 398.2383422851563 L 286.4754333496094 409.5000305175781 Z" stroke="none"/>
        <path d="M 14.15872192382813 1.00048828125 L 14.15872192382813 10.81686401367188 L 14.15872192382813 11.81686401367188 L 13.15872192382813 11.81686401367188 L 1.282684326171875 11.81686401367188 L 1.282684326171875 396.0275573730469 L 13.15872192382813 396.0275573730469 L 14.15872192382813 396.0275573730469 L 14.15872192382813 397.0275573730469 L 14.15872192382813 409.0000305175781 L 285.9754333496094 409.0000305175781 L 285.9754333496094 398.2383422851563 L 285.9754333496094 397.2383422851563 L 286.9754333496094 397.2383422851563 L 298.0123291015625 397.2383422851563 L 298.38525390625 11.81686401367188 L 287.32958984375 11.81686401367188 L 286.32958984375 11.81686401367188 L 286.32958984375 10.81686401367188 L 286.32958984375 1.009765625 L 14.15872192382813 1.00048828125 M 13.15872192382813 0.00042724609375 L 287.32958984375 0.009796142578125 L 287.32958984375 10.81686401367188 L 299.3861999511719 10.81686401367188 L 299.0113525390625 398.2383422851563 L 286.9754333496094 398.2383422851563 L 286.9754333496094 410.0000305175781 L 13.15872192382813 410.0000305175781 L 13.15872192382813 397.0275573730469 L 0.282684326171875 397.0275573730469 L 0.282684326171875 10.81686401367188 L 13.15872192382813 10.81686401367188 L 13.15872192382813 0.00042724609375 Z" stroke="none" fill="#4a4a4a"/>
      </g>
      <rect id="矩形_73" data-name="矩形 73" width="252" height="408" transform="translate(62 206)" fill="#f4ede5"/>
      <g id="矩形_72" data-name="矩形 72" transform="translate(44 210)" fill="none" stroke="#434343" stroke-width="1">
        <rect width="287" height="399" stroke="none"/>
        <rect x="0.5" y="0.5" width="286" height="398" fill="none"/>
      </g>
      <g id="路径_173" data-name="路径 173" transform="translate(82.314 173.744)" fill="#dfb680">
        <path d="M 201.7882690429688 62.98455810546875 L 10.10718441009521 62.98455810546875 L 10.10718441009521 54.35602951049805 L 10.10718441009521 53.85602951049805 L 9.607184410095215 53.85602951049805 L 1.043694734573364 53.85602951049805 L 0.7855485677719116 8.111820220947266 L 9.343421936035156 8.111820220947266 L 9.843421936035156 8.111820220947266 L 9.843421936035156 7.611819744110107 L 9.843421936035156 0.5004686117172241 L 201.7737121582031 0.5070396065711975 L 201.7737121582031 7.611819744110107 L 201.7737121582031 8.111820220947266 L 202.2737121582031 8.111820220947266 L 210.2578125 8.111820220947266 L 210.2578125 54.70803070068359 L 202.2882690429688 54.70803070068359 L 201.7882690429688 54.70803070068359 L 201.7882690429688 55.20803070068359 L 201.7882690429688 62.98455810546875 Z" stroke="none"/>
        <path d="M 10.34341430664063 1.000484466552734 L 10.34341430664063 7.611820220947266 L 10.34341430664063 8.611820220947266 L 9.343414306640625 8.611820220947266 L 1.288360595703125 8.611820220947266 L 1.540863037109375 53.35600280761719 L 9.607177734375 53.35600280761719 L 10.607177734375 53.35600280761719 L 10.607177734375 54.35600280761719 L 10.607177734375 62.48455810546875 L 201.2882385253906 62.48455810546875 L 201.2882385253906 55.20803070068359 L 201.2882385253906 54.20803070068359 L 202.2882385253906 54.20803070068359 L 209.7578125 54.20803070068359 L 209.7578125 8.611820220947266 L 202.2737121582031 8.611820220947266 L 201.2737121582031 8.611820220947266 L 201.2737121582031 7.611820220947266 L 201.2737121582031 1.007022857666016 L 10.34341430664063 1.000484466552734 M 9.343414306640625 0.00045013427734375 L 202.2737121582031 0.00705718994140625 L 202.2737121582031 7.611820220947266 L 210.7578125 7.611820220947266 L 210.7578125 55.20803070068359 L 202.2882385253906 55.20803070068359 L 202.2882385253906 63.48455810546875 L 9.607177734375 63.48455810546875 L 9.607177734375 54.35600280761719 L 0.5464935302734375 54.35600280761719 L 0.28271484375 7.611820220947266 L 9.343414306640625 7.611820220947266 L 9.343414306640625 0.00045013427734375 Z" stroke="none" fill="#3b3b3b"/>
      </g>
      <g id="矩形_71" data-name="矩形 71" transform="translate(88 178)" fill="none" stroke="#434343" stroke-width="1">
        <rect width="200" height="54" stroke="none"/>
        <rect x="0.5" y="0.5" width="199" height="53" fill="none"/>
      </g>
      <rect id="矩形_77" data-name="矩形 77" width="210" height="39" transform="translate(83 465)" fill="#750202"/>
    </g>
    <text id="星艺在线" transform="translate(188 220)" fill="#411302" font-size="39" font-family="zktqkt" letter-spacing="-0.024em"><tspan x="-76.596" y="0">星艺在线</tspan></text>
  </g>
</svg>
