<svg xmlns="http://www.w3.org/2000/svg" width="18.131" height="20" viewBox="0 0 18.131 20">
  <g id="gonggao" transform="translate(-1218.305 -390.999)">
    <g id="组_1" data-name="组 1" transform="translate(1218.305 390.999)">
      <path id="路径_1" data-name="路径 1" d="M1236.423,402.3a2.134,2.134,0,0,0-1.129-1.311,5.952,5.952,0,0,0-1.864-.567,1.009,1.009,0,0,1-.4-.107,1.773,1.773,0,0,1-.843-.8c-.087-.2-.2-.387-.3-.58-.111-.21-.215-.423-.33-.631q-.416-.755-.84-1.5-.393-.7-.8-1.391a2.858,2.858,0,0,0-.613-.72c-.393-.334-.772-.683-1.159-1.024a.984.984,0,0,0-.185-.148q-1.128-.6-2.26-1.192a1.119,1.119,0,0,0-.573-.127,7.019,7.019,0,0,1-.713-.008.243.243,0,0,1-.182-.116,1.393,1.393,0,0,0-.571-.665,1.651,1.651,0,0,0-.908-.406,1.454,1.454,0,0,0-1.092.382c-.195.168-.362.366-.546.547a1.2,1.2,0,0,0-.313.691,1.468,1.468,0,0,0-.021.355.5.5,0,0,1-.217.461c-.063.049-.126.1-.187.147a4.427,4.427,0,0,0-1.432,1.786,7.2,7.2,0,0,1-.306.708,2.555,2.555,0,0,0-.259,1.264c.01.832.025,1.666.039,2.5a3.531,3.531,0,0,0,.024.356c.059.491.131.98.179,1.472a8.636,8.636,0,0,0,.459,1.836c.117.355.252.7.374,1.059a.5.5,0,0,1,.017.177c-.014.391.053.806-.322,1.09-.014.011-.019.035-.028.053a8.863,8.863,0,0,0-.787,2.044,1.259,1.259,0,0,0,.047.758,3.467,3.467,0,0,1,.134.514,1.3,1.3,0,0,0,.4.715c.133.119.26.246.4.36a1.835,1.835,0,0,0,.8.372,24.788,24.788,0,0,0,3.331.352c.211-.025.5-.066.8-.092a10.541,10.541,0,0,1,1.418-.136,1.051,1.051,0,0,0,.353-.033c.678-.211,1.38-.342,2.043-.613a4.309,4.309,0,0,1,1.192-.346,2.431,2.431,0,0,0,.684-.185,10.065,10.065,0,0,0,2.045-1.072c.192-.139.394-.264.585-.4a6.914,6.914,0,0,0,1.35-1.154c.377-.46.781-.9,1.13-1.379a14.064,14.064,0,0,0,.773-1.268,5.042,5.042,0,0,0,.6-1.785.5.5,0,0,0,0-.23Zm-15.082-9.9a1.871,1.871,0,0,1,.613-.7,1.432,1.432,0,0,1,.5-.135.62.62,0,0,1,.479.208c.087.1.2.183.292.285a.237.237,0,0,1-.1.346,1.939,1.939,0,0,1-.226.061,2.085,2.085,0,0,0-.918.363.548.548,0,0,1-.333.08.364.364,0,0,1-.307-.509Zm-.523,4.393a.209.209,0,0,0-.272.019c-.077.061-.141.14-.218.2s-.074.223-.225.207a1.6,1.6,0,0,1-.006-.291,17.2,17.2,0,0,1,.474-2.2.544.544,0,0,1,.164-.236q.293-.252.607-.478a1.287,1.287,0,0,1,.316-.153c.5-.18,1-.366,1.513-.527a3.983,3.983,0,0,1,1.361-.189,2.8,2.8,0,0,1,1.418.309c.467.216.938.423,1.407.634a.3.3,0,0,1,.054.022,10.153,10.153,0,0,1,1.6,1.307,8.43,8.43,0,0,1,1.387,2.406,14.106,14.106,0,0,0,.909,1.869,4.137,4.137,0,0,1,.186.37.135.135,0,0,1-.111.175,1.355,1.355,0,0,1-.178.009,7.355,7.355,0,0,0-2.219.349c-.933.26-1.863.527-2.8.76a10.44,10.44,0,0,0-1.934.739c-.376.178-.748.366-1.133.519a7.019,7.019,0,0,0-1.752.862.157.157,0,0,1-.246-.069c-.043-.089-.071-.184-.113-.273a.428.428,0,0,1,.024-.4c.078-.16.166-.313.234-.476.014-.034-.037-.105-.075-.144-.017-.018-.077-.011-.109,0a1.374,1.374,0,0,0-.148.1c-.076.048-.126.179-.236.112-.059-.036-.09-.126-.123-.2a.5.5,0,0,1,.008-.459c.089-.176.2-.342.288-.519q.2-.4.382-.8c.043-.095-.047-.193-.15-.195a.528.528,0,0,0-.419.192c-.131.147-.244.31-.37.463-.022.026-.079.052-.1.041-.048-.025-.108-.068-.118-.114a.781.781,0,0,1,.088-.625c.249-.4.475-.823.7-1.241.168-.312.189-.569.064-.6-.231-.05-.362.126-.5.258-.115.107-.213.233-.324.345a.223.223,0,0,1-.109.035s-.021-.032-.024-.05a.942.942,0,0,1,.128-.737,2.421,2.421,0,0,0,.232-.414,1.3,1.3,0,0,1,.344-.475.865.865,0,0,0,.147-.185.191.191,0,0,0-.024-.266Zm-.393,7.5a2.927,2.927,0,0,1-.237.322c-.01.013-.034.017-.051.025-.021-.027-.057-.052-.06-.081a.658.658,0,0,1,.147-.486c.051-.07.105-.018.147.014a.157.157,0,0,1,.054.205Zm14.728-.257c-.267.393-.522.795-.8,1.181a7.182,7.182,0,0,1-1.694,1.733c-.306.216-.567.5-.874.709-.455.317-.932.6-1.4.9a.91.91,0,0,1-.163.072c-.7.257-1.409.52-2.118.766a5.653,5.653,0,0,1-.581.107c-.366.084-.73.178-1.093.272a4.087,4.087,0,0,1-1.349.161c-.119-.01-.238,0-.44,0a6.434,6.434,0,0,0-1.337.088,1.54,1.54,0,0,1-.591,0,5.567,5.567,0,0,0-1.185-.079,2.028,2.028,0,0,1-1.524-.536,2.7,2.7,0,0,0-.228-.191,1,1,0,0,1-.381-1.1,1.372,1.372,0,0,0,.055-.231,2.274,2.274,0,0,1,.574-1.331,19.918,19.918,0,0,1,1.932-2.012,1.054,1.054,0,0,1,.236-.178,15.758,15.758,0,0,1,2.515-1.2c1.159-.4,2.306-.828,3.5-1.117a2.775,2.775,0,0,0,.452-.145,6.037,6.037,0,0,1,2.32-.415.422.422,0,0,1,.059,0c.318.038.612-.142.941-.074a6.528,6.528,0,0,0,.887.075,2.375,2.375,0,0,0,.357.006,1.991,1.991,0,0,1,.975.2c.217.094.444.174.651.286a1.04,1.04,0,0,1,.6.883,1.737,1.737,0,0,1-.3,1.178Zm-1.5-1.35a.611.611,0,0,1-.29-.051,1.584,1.584,0,0,0-.7-.105,14.079,14.079,0,0,0-1.718.111,12.606,12.606,0,0,0-2.327.439q-1.085.307-2.164.628c-.813.24-1.642.413-2.444.71a8.744,8.744,0,0,0-2.85,1.669,4.564,4.564,0,0,0-1.134,1.361,6.062,6.062,0,0,0-.352.939.266.266,0,0,0,.277.358,1,1,0,0,1,.716.2,1.662,1.662,0,0,0,.495.193,7.045,7.045,0,0,0,2.046.306c.357-.009.714,0,1.071,0,.416,0,.832,0,1.249,0a2.957,2.957,0,0,0,1.645-.4,1.609,1.609,0,0,1,.438-.178,7.08,7.08,0,0,0,2.03-.795c.1-.063.212-.107.314-.167q.512-.3,1.018-.609c.118-.073.219-.171.337-.242a20.023,20.023,0,0,0,1.681-1.219,1.378,1.378,0,0,0,.4-.507,3.79,3.79,0,0,1,.419-.715,4.946,4.946,0,0,0,.468-.822.68.68,0,0,0-.057-.731.638.638,0,0,0-.566-.371Zm-9.177,3.26a.92.92,0,0,0,.14-.507.259.259,0,0,1,.194-.318c.41-.147.818-.3,1.229-.439.242-.083.489-.156.736-.228.124-.036.276.057.273.158a1.533,1.533,0,0,1-.242.784c-.149.209-.315.408-.483.6-.12.139-.128.134-.317-.019-.1-.083-.183-.089-.261-.017a.838.838,0,0,0-.306.426.363.363,0,0,1-.082.152.112.112,0,0,1-.1.022.11.11,0,0,1-.055-.089c.03-.134.08-.265.109-.4a1.521,1.521,0,0,0,.02-.294.157.157,0,0,0-.216-.129.722.722,0,0,0-.23.175c-.14.191-.259.4-.391.593a.642.642,0,0,1-.126.12.058.058,0,0,1-.052.007c-.015-.008-.036-.036-.032-.047.063-.186.121-.373.195-.553Zm-1.328-.046c.042-.006.086-.008.129-.01l.017-.018.014.006c0-.019,0-.042.008-.047.237-.128.476-.253.716-.376.011-.005.043,0,.045.013.009.032.025.076.011.1-.113.182-.225.366-.354.537-.049.064-.048.211-.171.171-.042-.014-.046-.137-.068-.21a.274.274,0,0,0-.187-.187.046.046,0,0,1,0,.009l-.03,0a.511.511,0,0,1-.092.085c-.013.008-.052-.027-.079-.042.014-.012.027-.031.042-.034Zm-1.833,2.078c-.024.01-.064-.017-.1-.028l.081-.141c.03.035.065.059.065.081a.113.113,0,0,1-.048.088Zm.987-.645a.036.036,0,0,1-.037,0,.875.875,0,0,1-.258-.56.306.306,0,0,1,.039-.1c.047.021.126.03.138.063.064.179.111.363.157.522a.4.4,0,0,1-.038.079Zm.448,1.116,0-.033.026.021-.031.012Zm10.619-4.619a2.551,2.551,0,0,1-.2.293c-.052.062-.12.062-.209.031-.252-.09-.4.018-.327.262a.461.461,0,0,1-.126.481,1.6,1.6,0,0,1-.231.184c-.481.38-.988.726-1.436,1.149a2.368,2.368,0,0,1-.547.354c-.528.27-1.038.571-1.546.876a4.057,4.057,0,0,1-.825.317,12.534,12.534,0,0,1-1.893.487,2.793,2.793,0,0,0-.462.106,5.471,5.471,0,0,1-2.235.109c-.112-.009-.117-.071-.08-.161a.648.648,0,0,0,.041-.172c.008-.08-.052-.121-.16-.109-.051,0-.1.015-.154.023a1.074,1.074,0,0,1,0-.161.54.54,0,0,1,.044-.11.087.087,0,0,0-.08-.124c-.132,0-.228-.021-.252-.177-.014-.1-.064-.187-.085-.283-.007-.029.021-.069.039-.1,0-.005.035,0,.049.006a4.706,4.706,0,0,0,1.094.452,5.413,5.413,0,0,0,1.89.082,1.837,1.837,0,0,0,.952-.46,3.429,3.429,0,0,0,1.24-1.837,2.171,2.171,0,0,0,.033-.939.607.607,0,0,1,.011-.222c0-.024.061-.039.1-.052.009,0,.037.019.039.03a1.445,1.445,0,0,1,.028.288,1.111,1.111,0,0,0,.166.622.378.378,0,0,0,.6.1.655.655,0,0,0,.113-.138.263.263,0,0,0-.079-.407c-.206-.086-.238-.241-.273-.418s-.017-.232.166-.31c.121-.051.21-.014.221.1a3.9,3.9,0,0,0,.045.472.418.418,0,0,0,.32.318.27.27,0,0,0,.348-.287,2.219,2.219,0,0,1-.077-.585c.012-.179.066-.256.229-.292.248-.055.315.016.286.261a6.2,6.2,0,0,0-.046.766c0,.172.131.276.313.3a.209.209,0,0,0,.255-.18c.007-.317.005-.634.012-.951,0-.146.069-.213.22-.213.177,0,.354.011.53.025a.105.105,0,0,1,.062.081.667.667,0,0,1-.044.171,1.351,1.351,0,0,0-.048.76.254.254,0,0,0,.148.157.273.273,0,0,0,.209-.066.378.378,0,0,0,.112-.2,1.684,1.684,0,0,0,.039-.7c-.054-.259,0-.3.282-.308.2-.007.4,0,.594,0v-.039c.139,0,.278-.005.416,0,.111.005.266-.042.3.1.016.069-.078.168-.129.25Zm0,0" transform="translate(-1218.305 -390.999)"/>
    </g>
  </g>
</svg>
