<svg id="tuiguangrentongji" xmlns="http://www.w3.org/2000/svg" xmlns:xlink="http://www.w3.org/1999/xlink" width="44.701" height="41.739" viewBox="0 0 44.701 41.739">
  <defs>
    <clipPath id="clip-path">
      <rect id="矩形_58" data-name="矩形 58" width="44.701" height="41.739" fill="#a77500"/>
    </clipPath>
  </defs>
  <g id="组_59" data-name="组 59" transform="translate(0 0)" clip-path="url(#clip-path)">
    <path id="路径_156" data-name="路径 156" d="M-113.022,42.832a4.057,4.057,0,0,1-1.019-2.731,3.975,3.975,0,0,1,.652-2.221,3.941,3.941,0,0,1,1.793-1.488,22.1,22.1,0,0,0,8.722,8.151,6.55,6.55,0,0,1-3.016.775,5.826,5.826,0,0,1-2.853-.652,7.2,7.2,0,0,1-2.853.652,6.714,6.714,0,0,1-2.608-.509A4.584,4.584,0,0,1-116.12,43.4a13.617,13.617,0,0,0,3.1-.571Zm33.135-20.3a9.066,9.066,0,0,1-1.427-.163A2.738,2.738,0,0,1-82.7,21.353a2.72,2.72,0,0,1-.53-1.63,2.765,2.765,0,0,1,.815-2.038,2.764,2.764,0,0,1,2.038-.815.9.9,0,0,1,.652.285.9.9,0,0,1,.285.652.9.9,0,0,0,.265.693.98.98,0,0,0,.693.245.981.981,0,0,0,.693-.245.9.9,0,0,0,.265-.693,2.493,2.493,0,0,0-.856-2,2.493,2.493,0,0,0-2-.856,4.536,4.536,0,0,0-3.363,1.386A4.638,4.638,0,0,0-85.1,19.723a4.566,4.566,0,0,0,1.223,3.1,10.209,10.209,0,0,1-3.627.693,10.217,10.217,0,0,1-5.5-1.63,4.726,4.726,0,0,1-2.527.652,5.306,5.306,0,0,1-2.4-.571,15.25,15.25,0,0,1-.937-5.094,14.481,14.481,0,0,1,.571-3.994,5.069,5.069,0,0,1,2.771-.775,3.709,3.709,0,0,1,1.1.122,7.955,7.955,0,0,1,3.016-2.16,9.958,9.958,0,0,1,3.913-.774,9.843,9.843,0,0,1,3.892.754A8.311,8.311,0,0,1-80.662,12.1h.774a5.673,5.673,0,0,1,3.994,1.549,4.862,4.862,0,0,1,1.671,3.688,4.8,4.8,0,0,1-1.671,3.668,5.715,5.715,0,0,1-3.994,1.528Zm-.122,11.493a4.108,4.108,0,0,0-.57-1.508,16,16,0,0,0,5.2-2.364,15.061,15.061,0,0,0,3.933-3.994,19.984,19.984,0,0,1-3.994,10.719,5.93,5.93,0,0,0-4.565-2.853ZM-113.1,24.451A20.488,20.488,0,0,1-110.557,14.4a20.465,20.465,0,0,1,6.949-7.459,20.962,20.962,0,0,1,9.741-3.281A15.924,15.924,0,0,0-98.9,9.33a15.728,15.728,0,0,0-1.854,7.54,15.65,15.65,0,0,0,3.036,9.435,15.939,15.939,0,0,0,7.968,5.849,4.94,4.94,0,0,1,3.22-1.06,3.339,3.339,0,0,1,.856.082h.163q.163.041.387.1t.387.1a.4.4,0,0,1,.2.082l.53.285a.137.137,0,0,1,.122.061c.027.041.054.061.082.061a2.8,2.8,0,0,1,.285.184,2.792,2.792,0,0,0,.285.183l.2.163q0,.041.1.1a.56.56,0,0,1,.163.143,1.073,1.073,0,0,1,.1.163l.2.163a3.083,3.083,0,0,1,.652,1.916v.937h.937a4.6,4.6,0,0,1,2.486.713,4.577,4.577,0,0,1,1.712,1.854,1.043,1.043,0,0,0,.143.346.974.974,0,0,1,.143.428.47.47,0,0,0,.041.143.462.462,0,0,1,.041.143.5.5,0,0,0,.082.285,2.282,2.282,0,0,1,.122.856,4.535,4.535,0,0,1-1.386,3.362,4.638,4.638,0,0,1-3.383,1.366,4.641,4.641,0,0,1-2.934-1.06,4.39,4.39,0,0,0,1.06-2.731q0-3.464-7.581-3.79A8.566,8.566,0,0,1-86.266,39a3.025,3.025,0,0,1,1.61,2.527,2.7,2.7,0,0,1-1.08,2.038,6.824,6.824,0,0,1-2.792,1.386,28.017,28.017,0,0,1-3.709.367,20.466,20.466,0,0,1-10.495-2.792,20.7,20.7,0,0,1-7.581-7.581A20.464,20.464,0,0,1-113.1,24.451Zm0,0" transform="translate(116.114 -3.63)" fill="#a77500"/>
  </g>
</svg>
