<svg xmlns="http://www.w3.org/2000/svg" width="44.981" height="37.109" viewBox="0 0 44.981 37.109">
  <g id="tuiguangmingpian" transform="translate(36 -114)">
    <path id="路径_155" data-name="路径 155" d="M-29.155,141.594c-5.084,0-6.845,1.9-6.845,4.758s1.76,4.758,6.845,4.758,6.845-1.9,6.845-4.758-1.76-4.758-6.845-4.758ZM8,116.854H4.092a.912.912,0,0,0-.978.952v4.758H1.159V115.9a.911.911,0,0,0-.978-.951H-3.73a.912.912,0,0,0-.978.951v4.758H-6.664V115.9a.911.911,0,0,0-.978-.951h-3.911a.911.911,0,0,0-.978.951v4.758h-1.955v-2.854a.912.912,0,0,0-.979-.951h-3.911a.911.911,0,0,0-.978.951v4.758H-22.31v-3.806c0-2.855-1.76-4.758-6.845-4.758S-36,115.9-36,118.758v22.836c1.564-1.332,3.715-1.9,6.845-1.9s5.281.571,6.845,1.9v-1.9h1.955v4.758a.911.911,0,0,0,.978.951h3.912a.912.912,0,0,0,.978-.951v-6.66h1.955v4.758a.911.911,0,0,0,.978.951h3.911a.911.911,0,0,0,.978-.951v-4.758h1.956v4.758a.912.912,0,0,0,.979.951H.181a.911.911,0,0,0,.978-.951v-2.855H3.114v4.758a.911.911,0,0,0,.978.951H8a.911.911,0,0,0,.978-.951V117.806A.911.911,0,0,0,8,116.855Zm-28.36,20.934h-1.956V124.467h1.956Zm7.823-1.9h-1.956V122.564h1.956Zm7.823,0H-6.665V122.564h1.956Zm7.823,1.9H1.158V124.467H3.114Zm0,0" fill="#a77500"/>
  </g>
</svg>
