<svg xmlns="http://www.w3.org/2000/svg" width="43.541" height="36.87" viewBox="0 0 43.541 36.87">
  <g id="tuiguangrenpaihangbang" transform="translate(-97.338 -221)">
    <g id="组_56" data-name="组 56" transform="translate(97.338 221)">
      <path id="路径_154" data-name="路径 154" d="M116.115,222.544c0-.817,1.362-1.544,3.088-1.544s3,.727,3,1.544-1.362,1.544-3,1.544-3.088-.726-3.088-1.544Zm-10.171,5.176a8,8,0,0,1-1.544-2.361,1.572,1.572,0,0,1,.091-1.544,1.353,1.353,0,0,1,1.362-.636,1.462,1.462,0,0,1,1.271.908c.454.908,1.907,3.178,3.632,3.178h15.9c1.453,0,3.451-2.27,4.177-3.36a1.562,1.562,0,0,1,2.089-.363,1.48,1.48,0,0,1,.454,2.089,13.2,13.2,0,0,1-1.907,2.27,7.055,7.055,0,0,1-4.813,2.452h-15.8a7.182,7.182,0,0,1-4.9-2.634Zm34.236,2.815a1.5,1.5,0,0,1,.454,2.089,24.275,24.275,0,0,1-2.815,3.269,13.16,13.16,0,0,1-4.268,3l2.815,17.163a1.581,1.581,0,0,1-.273,1.271,1.462,1.462,0,0,1-1.181.545H124.379v-7.083a5.267,5.267,0,0,0-10.534,0v7.083H103.583a1.462,1.462,0,0,1-1.181-.545,1.626,1.626,0,0,1-.363-1.271l2.815-16.8c-4.632-1.181-7.265-6.538-7.356-6.811a1.571,1.571,0,0,1,.091-1.544,1.353,1.353,0,0,1,1.362-.636,1.462,1.462,0,0,1,1.271.908c0,.091,2.634,5.267,6.357,5.267h4.087v-1a2.179,2.179,0,0,1,4.359,0v1h8.082v-.817a2.272,2.272,0,1,1,4.541,0v.817h3.269c2.815,0,6.175-4.086,7.174-5.449a1.5,1.5,0,0,1,2.089-.454Zm0,0" transform="translate(-97.338 -221)" fill="#a77500"/>
    </g>
  </g>
</svg>
