<svg xmlns="http://www.w3.org/2000/svg" width="30.945" height="30.888" viewBox="0 0 30.945 30.888">
  <g id="组_90" data-name="组 90" transform="translate(-1027 -232)">
    <path id="路径_180" data-name="路径 180" d="M1042.5,232a15.444,15.444,0,1,0,15.444,15.444A15.461,15.461,0,0,0,1042.5,232Zm-2.756,19.061a10.583,10.583,0,0,1-2.3-.344l-2.3,1.148.689-2.009a5.379,5.379,0,0,1-2.641-4.478c0-3.158,2.986-5.626,6.6-5.626,3.272,0,6.086,1.952,6.66,4.65-.229,0-.4-.057-.631-.057a5.415,5.415,0,0,0-5.627,5.225,3.857,3.857,0,0,0,.23,1.378,1.457,1.457,0,0,1-.689.115Zm9.76,2.354.517,1.665-1.78-1.033a8.2,8.2,0,0,1-2.01.344c-3.158,0-5.626-2.124-5.626-4.765s2.469-4.823,5.626-4.823c2.985,0,5.626,2.124,5.626,4.823a5.039,5.039,0,0,1-2.354,3.789Zm0,0" fill="#17aa00"/>
    <path id="路径_181" data-name="路径 181" d="M1281.863,510.536a.919.919,0,1,0,.919-.919.907.907,0,0,0-.919.919Zm7.119,4.823a.746.746,0,1,0,.746-.746.692.692,0,0,0-.746.746Zm-2.469-4.823a.919.919,0,1,0,.919-.919.907.907,0,0,0-.919.919Zm6.143,4.823a.746.746,0,1,0,.746-.746.692.692,0,0,0-.746.746Zm0,0" transform="translate(-245.218 -267.111)" fill="#17aa00"/>
  </g>
</svg>
