<svg xmlns="http://www.w3.org/2000/svg" width="39.22" height="36.767" viewBox="0 0 39.22 36.767">
  <path id="yongjinpaihang" d="M-153.652,1144.11s.73-.238.488.713c-.488.954-4.62,10.467-1.7,28.311a38.161,38.161,0,0,0,1.946,6.66s.245.713-.973.713h-6.564s-.488-.238-.973-1.9a26.078,26.078,0,0,1-1.216-5v-.238l-6.081,0v.953c0,3.135.218,4.373.647,4.9l.083.093c.488.713,0,.951,0,.951s-7.537.238-8.023,0c-.73,0-.488-.475-.488-.475.642-.836.532-5.351.495-6.43l-6.331.008a43.855,43.855,0,0,1-1.216,5.471l-.485,1.189s0,.713-.485.713h-7.052s-.73.238-.488-.711c.488-.956,4.62-10.469,1.7-28.311a51.482,51.482,0,0,0-1.7-6.662s-.243-.711.973-.711h6.567a6.459,6.459,0,0,1,.728,2.14,26.037,26.037,0,0,1,1.216,5v.238h19.7a47.487,47.487,0,0,1,1.216-5.711l.486-1.189s0-.711.485-.711Zm-9.969,14.273h-17.751c0,2.378.245,5,0,7.851h17.751a41.935,41.935,0,0,1,0-7.851Zm-12.888-14.273c.488-.238,8.025,0,8.025,0s.245,0,0,.951a20.927,20.927,0,0,0-.485,5.711v.711h-7.3s.245-5.706-.485-6.9c0,0-.245-.238.245-.475Zm0,0" transform="translate(192.121 -1144.005)" fill="#a77500"/>
</svg>
