<svg id="zhifubao" xmlns="http://www.w3.org/2000/svg" width="22.113" height="22.113" viewBox="0 0 22.113 22.113">
  <path id="路径_164" data-name="路径 164" d="M-13.887,70.138V59.252A4.254,4.254,0,0,0-18.14,55H-31.748A4.253,4.253,0,0,0-36,59.252V72.861a4.253,4.253,0,0,0,4.252,4.252h13.609a4.255,4.255,0,0,0,4.186-3.5c-1.128-.488-6.014-2.6-8.561-3.814-1.938,2.347-3.967,3.756-7.025,3.756s-5.1-1.884-4.855-4.189c.162-1.513,1.2-3.988,5.708-3.564a20.315,20.315,0,0,1,5.4,1.306A15.235,15.235,0,0,0-22.051,64.1h-8.592v-.852h4.251V61.721h-5.185v-.938h5.186V58.576a.412.412,0,0,1,.428-.345h2.126v2.552h5.528v.938h-5.528v1.528h4.51a17.408,17.408,0,0,1-1.832,4.592c1.31.474,7.272,2.3,7.272,2.3Zm-15.991,1.956c-3.232,0-3.743-2.041-3.571-2.893a2.765,2.765,0,0,1,2.9-1.956,13.5,13.5,0,0,1,6.134,1.609c-1.559,2.032-3.475,3.241-5.465,3.241Zm0,0" transform="translate(36 -55)" fill="#004a9a"/>
</svg>
