<svg xmlns="http://www.w3.org/2000/svg" xmlns:xlink="http://www.w3.org/1999/xlink" width="23" height="23" viewBox="0 0 23 23">
  <defs>
    <clipPath id="clip-path">
      <rect id="矩形_96" data-name="矩形 96" width="23" height="23" transform="translate(132 295)" fill="none" stroke="#707070" stroke-width="0.1"/>
    </clipPath>
  </defs>
  <g id="fukuanqueren" transform="translate(-132 -295)" clip-path="url(#clip-path)">
    <g id="组_18" data-name="组 18" transform="translate(135 299)">
      <path id="路径_55" data-name="路径 55" d="M1296.411,174.083h-10.855a3.2,3.2,0,0,0-3.193,3.193v8.94a3.2,3.2,0,0,0,3.193,3.193h10.855a3.2,3.2,0,0,0,3.193-3.193v-8.94A3.2,3.2,0,0,0,1296.411,174.083Zm1.916,12.132a1.921,1.921,0,0,1-1.916,1.916h-10.855a1.921,1.921,0,0,1-1.916-1.916V179.83h14.687Zm0-7.662H1283.64v-1.277a1.921,1.921,0,0,1,1.916-1.916h10.855a1.921,1.921,0,0,1,1.916,1.916Z" transform="translate(-1282.363 -174.083)" fill="#750202"/>
      <path id="路径_56" data-name="路径 56" d="M1301.891,230.75a.64.64,0,0,0-.639.639v1.277a.638.638,0,1,0,1.277,0v-1.277a.64.64,0,0,0-.638-.639Z" transform="translate(-1298.059 -221.172)" fill="#750202"/>
      <path id="路径_57" data-name="路径 57" d="M1317,230.75a.64.64,0,0,0-.639.639v1.277a.639.639,0,0,0,1.277,0v-1.277a.641.641,0,0,0-.639-.639Z" transform="translate(-1310.616 -221.172)" fill="#750202"/>
      <path id="路径_58" data-name="路径 58" d="M1332.112,230.75a.64.64,0,0,0-.638.639v1.277a.639.639,0,0,0,1.277,0v-1.277a.641.641,0,0,0-.639-.639Z" transform="translate(-1323.173 -221.172)" fill="#750202"/>
    </g>
  </g>
</svg>
