<svg xmlns="http://www.w3.org/2000/svg" xmlns:xlink="http://www.w3.org/1999/xlink" width="23" height="23" viewBox="0 0 23 23">
  <defs>
    <clipPath id="clip-path">
      <rect id="矩形_95" data-name="矩形 95" width="23" height="23" transform="translate(41 295)" fill="none" stroke="#707070" stroke-width="0.1"/>
    </clipPath>
  </defs>
  <g id="quanbudingdan" transform="translate(-41 -295)" clip-path="url(#clip-path)">
    <g id="组_17" data-name="组 17" transform="translate(44 297)">
      <path id="路径_50" data-name="路径 50" d="M1177.435,170.309h-1.148c-.318,0-.684.2-.684.513a.731.731,0,0,0,.684.635h1.148a1.09,1.09,0,0,1,1.148,1.148v13.211a1.09,1.09,0,0,1-1.148,1.148h-12.357c-.683,0-1.441-.464-1.441-1.148V172.6a1.09,1.09,0,0,1,1.148-1.148h1.441c.317,0,.439-.317.439-.635s-.122-.513-.439-.513h-1.441a2.1,2.1,0,0,0-2.3,2.32v13.065a2.244,2.244,0,0,0,2.418,2.418h12.406a2.167,2.167,0,0,0,2.418-2.418V172.629a2.159,2.159,0,0,0-2.3-2.32Z" transform="translate(-1162.489 -169.747)" fill="#750202"/>
      <path id="路径_51" data-name="路径 51" d="M1183.242,196.4a.6.6,0,0,0,.586.586h8.62a.586.586,0,1,0,0-1.172h-8.62a.594.594,0,0,0-.586.586Z" transform="translate(-1179.505 -190.656)" fill="#750202"/>
      <path id="路径_52" data-name="路径 52" d="M1192.424,213.442h-8.6a.586.586,0,1,0,0,1.172h8.62a.594.594,0,0,0,.586-.586.615.615,0,0,0-.611-.586Z" transform="translate(-1179.505 -205.115)" fill="#750202"/>
      <path id="路径_53" data-name="路径 53" d="M1192.424,232.567h-8.6a.586.586,0,1,0,0,1.172h8.62a.594.594,0,0,0,.586-.586.615.615,0,0,0-.611-.586Z" transform="translate(-1179.505 -220.796)" fill="#750202"/>
      <path id="路径_54" data-name="路径 54" d="M1195.379,169.192h4.005a1.012,1.012,0,0,0-.024-2h-3.981a1.01,1.01,0,0,0,0,2Z" transform="translate(-1188.737 -167.189)" fill="#750202"/>
    </g>
  </g>
</svg>
