<svg xmlns="http://www.w3.org/2000/svg" width="22.272" height="22.272" viewBox="0 0 22.272 22.272">
  <g id="weiixn" transform="translate(0)">
    <path id="路径_165" data-name="路径 165" d="M118.954,279.672a.844.844,0,1,0,0,1.659.83.83,0,0,0,0-1.659Zm6.785,4.808a.661.661,0,1,0,0,1.322.678.678,0,1,0,0-1.322Zm0,0" transform="translate(-112.645 -273.344)" fill="#348d28"/>
    <path id="路径_166" data-name="路径 166" d="M-30.728,79.39a3.39,3.39,0,0,0-.994-2.4A3.391,3.391,0,0,0-34.12,76H-49.608A3.392,3.392,0,0,0-53,79.39V94.879a3.391,3.391,0,0,0,3.392,3.393H-34.12a3.388,3.388,0,0,0,2.4-.993,3.389,3.389,0,0,0,.992-2.4ZM-44.541,90.779a11.32,11.32,0,0,1-2.319-.333l-2.313,1.161.662-1.992a5.428,5.428,0,0,1-2.649-4.47c0-3.148,2.98-5.63,6.619-5.63,3.256,0,6.109,1.982,6.682,4.652a6.113,6.113,0,0,0-.641-.036,5.417,5.417,0,0,0-5.625,5.236,4.859,4.859,0,0,0,.2,1.387q-.309.024-.619.025Zm9.768,2.323.5,1.651-1.82-.991a8.387,8.387,0,0,1-1.984.326c-3.15,0-5.632-2.154-5.632-4.8s2.482-4.806,5.632-4.806c2.973,0,5.622,2.16,5.622,4.806A5.017,5.017,0,0,1-34.774,93.1Zm0,0" transform="translate(53 -76)" fill="#348d28"/>
    <path id="路径_167" data-name="路径 167" d="M273.939,284.48a.661.661,0,0,0,0,1.322.678.678,0,1,0,0-1.322Zm-5.792-3.148a.83.83,0,1,0,0-1.659.843.843,0,1,0,0,1.659Zm0,0" transform="translate(-257.204 -273.344)" fill="#348d28"/>
  </g>
</svg>
