<svg xmlns="http://www.w3.org/2000/svg" width="15.255" height="18.185" viewBox="0 0 15.255 18.185">
  <g id="gerenzhongxin" transform="translate(429 13)">
    <path id="路径_178" data-name="路径 178" d="M-428.484,375.765a.516.516,0,0,1-.516-.516,7.814,7.814,0,0,1,.617-3.056A7.8,7.8,0,0,1-426.7,369.7a7.855,7.855,0,0,1,2.494-1.683,7.815,7.815,0,0,1,3.056-.617c.221,0,.444.008.663.027a.513.513,0,0,1,.471.557.513.513,0,0,1-.557.471c-.19-.017-.384-.025-.576-.025a6.824,6.824,0,0,0-6.816,6.816.52.52,0,0,1-.518.52Zm14.738-5.017h-7.289v-.619a.414.414,0,0,1,.413-.413h6.463a.414.414,0,0,1,.413.413Zm0,2.4h-7.289v-.619a.414.414,0,0,1,.413-.413h6.463a.414.414,0,0,1,.413.413Zm0,2.4h-7.289v-.619a.414.414,0,0,1,.413-.413h6.463a.414.414,0,0,1,.413.413Zm0,0" transform="translate(0 -370.58)"/>
    <path id="路径_179" data-name="路径 179" d="M-299.481-11.408A5.4,5.4,0,0,0-303.325-13a5.4,5.4,0,0,0-3.845,1.592,5.4,5.4,0,0,0-1.592,3.845,5.4,5.4,0,0,0,1.592,3.845,5.4,5.4,0,0,0,3.845,1.592,5.4,5.4,0,0,0,3.847-1.594,5.4,5.4,0,0,0,1.59-3.843,5.4,5.4,0,0,0-1.592-3.845Zm0,0" transform="translate(-117.135 0)"/>
  </g>
</svg>
