<svg xmlns="http://www.w3.org/2000/svg" xmlns:xlink="http://www.w3.org/1999/xlink" width="15.255" height="15.274" viewBox="0 0 15.255 15.274">
  <defs>
    <clipPath id="clip-path">
      <rect id="矩形_79" data-name="矩形 79" width="15.255" height="15.274" fill="none"/>
    </clipPath>
  </defs>
  <g id="kefuzhongxin" transform="translate(77 -14)">
    <g id="组_78" data-name="组 78" transform="translate(-77 14)">
      <g id="组_77" data-name="组 77" transform="translate(0 0)" clip-path="url(#clip-path)">
        <path id="路径_174" data-name="路径 174" d="M-70.149,14.294a7.628,7.628,0,0,1,8.363,8.314A7.653,7.653,0,0,1-68.4,29.444a7.591,7.591,0,0,1-4.847-1l-2.138.737a.311.311,0,0,1-.407-.354l.432-2.229a7.591,7.591,0,0,1-1.586-5.637,7.651,7.651,0,0,1,6.8-6.665Zm.01,6.825a.763.763,0,0,0-.762.762.763.763,0,0,0,.762.762h4.575a.763.763,0,0,0,.762-.762.763.763,0,0,0-.762-.762Zm-3.05,1.525a.763.763,0,0,0,.762-.762.763.763,0,0,0-.762-.762.763.763,0,0,0-.762.762.763.763,0,0,0,.762.762Zm0,0" transform="translate(77.002 -14.251)"/>
      </g>
    </g>
  </g>
</svg>
