<svg id="shoukuanqueren" xmlns="http://www.w3.org/2000/svg" width="15.5" height="15.458" viewBox="0 0 15.5 15.458">
  <path id="路径_159" data-name="路径 159" d="M-862.232,309.934a2.2,2.2,0,0,0-2.345,2.01v6.7a2.2,2.2,0,0,0,2.345,2.01h13.155v-8.041h-13.155c-.535,0-1.005-.313-1.005-.67s.47-.67,1.005-.67h1.759a2.067,2.067,0,0,1,1.926-1.675,2.2,2.2,0,0,1,2.01,1.675h7.452v-1.34Z" transform="translate(864.577 -305.197)"/>
  <path id="路径_160" data-name="路径 160" d="M-421.906,141.4a1.967,1.967,0,0,0-1.967,1.967,1.968,1.968,0,0,0,1.967,1.968,1.968,1.968,0,0,0,1.968-1.968A1.968,1.968,0,0,0-421.906,141.4Zm0,2.951a.984.984,0,0,1-.984-.984.984.984,0,0,1,.984-.984.984.984,0,0,1,.984.984A.984.984,0,0,1-421.906,144.347Z" transform="translate(435.408 -141.396)"/>
  <path id="路径_161" data-name="路径 161" d="M-731.451,271.2a2.68,2.68,0,0,0-2.68,2.68h1.34a1.341,1.341,0,0,1,1.34-1.34,1.341,1.341,0,0,1,1.34,1.34h1.34a2.68,2.68,0,0,0-2.68-2.68Z" transform="translate(737.545 -267.803)"/>
  <path id="路径_162" data-name="路径 162" d="M-631.733,271.2" transform="translate(637.827 -267.803)"/>
</svg>
