<svg id="wodedizhi" xmlns="http://www.w3.org/2000/svg" xmlns:xlink="http://www.w3.org/1999/xlink" width="15.5" height="16.72" viewBox="0 0 15.5 16.72">
  <defs>
    <clipPath id="clip-path">
      <rect id="矩形_81" data-name="矩形 81" width="15.5" height="16.72" fill="none"/>
    </clipPath>
  </defs>
  <g id="组_84" data-name="组 84" transform="translate(0 0)">
    <g id="组_83" data-name="组 83" transform="translate(0)" clip-path="url(#clip-path)">
      <path id="路径_176" data-name="路径 176" d="M-57.149,570.632a.56.56,0,0,0-.427.087.561.561,0,0,0-.236.366.554.554,0,0,0,.091.423.554.554,0,0,0,.368.229c1.637.315,2.607.821,2.607,1.077,0,.056-.086.142-.315.311a5.383,5.383,0,0,1-1.376.566,18.9,18.9,0,0,1-4.91.567,18.747,18.747,0,0,1-4.91-.567,5.346,5.346,0,0,1-1.378-.566c-.265-.17-.346-.256-.346-.311,0-.227.889-.707,2.385-1.021a.543.543,0,0,0,.366-.245.543.543,0,0,0,.064-.436.507.507,0,0,0-.231-.368.507.507,0,0,0-.431-.054c-2.034.425-3.292,1.1-3.292,2.125,0,1.59,3.444,2.55,7.75,2.55s7.75-.963,7.75-2.55c0-1.048-1.35-1.758-3.529-2.182Zm0,0" transform="translate(69.118 -558.665)"/>
    </g>
  </g>
  <path id="路径_177" data-name="路径 177" d="M24.105,6.888a6.7,6.7,0,0,0,.759.6,1.1,1.1,0,0,0,1.484,0,6.638,6.638,0,0,0,.759-.6,16.481,16.481,0,0,0,1.822-1.967c.914-1.149,2.443-3.37,2.443-5.346A6.546,6.546,0,0,0,29.822-4.8a5.366,5.366,0,0,0-1.83-1.361,5.78,5.78,0,0,0-2.386-.494,5.784,5.784,0,0,0-2.385.494,5.356,5.356,0,0,0-1.831,1.351,6.577,6.577,0,0,0-1.55,4.372c0,1.979,1.529,4.2,2.439,5.351a16.531,16.531,0,0,0,1.826,1.971ZM27.737-2.92a2.75,2.75,0,0,1,.822,1.961A2.75,2.75,0,0,1,27.737,1a2.839,2.839,0,0,1-3.974,0A2.75,2.75,0,0,1,22.94-.959a2.75,2.75,0,0,1,.822-1.961,2.838,2.838,0,0,1,3.974,0Zm0,0" transform="translate(-18.002 6.659)"/>
</svg>
